# xmcd
#
# Track frame offsets:
#	150
#	12717
#	26755
#	37120
#	50222
#	63677
#	77920
#	91665
#	106630
#	117490
#	130590
#	143130
#
# Disc length: 2085
#
# Revision: 2
# Processed by: cddbd v1.5.1PL0 Copyright (c) Steve Scherf et al.
# Submitted via: Kscd 1.3.3
# Normalized: r1:TDELIM( - )
#
DISCID=a708230c
DTITLE=Multiple Artists - The Blues Collection - Volume 3
DYEAR=1900
DGENRE=
TTITLE0=Washboard Sam - Diggin' my potatoes
TTITLE1=Willie Dixon - Walkin the Blues
TTITLE2=Little Milton - Lonely no more
TTITLE3=Howlin' Wolf - I asked for water
TTITLE4=Little Walker - Off the wall
TTITLE5=Muddy Waters - Rollin' stone
TTITLE6=John Lee Hooker - It's my own fault
TTITLE7=Muddy Waters - Baby please don't go
TTITLE8=Sonny Boy Williamson - Fattening frogs for snakes
TTITLE9=Jimmy Witterspoon - Time brings about change
TTITLE10=Elmore James - The sun is shining
TTITLE11=Jimmy Rogers - The world's in a tangle
EXTD=
EXTT0=
EXTT1=
EXTT2=
EXTT3=
EXTT4=
EXTT5=
EXTT6=
EXTT7=
EXTT8=
EXTT9=
EXTT10=
EXTT11=
PLAYORDER=
